<?xml version="1.0" encoding="utf-8"?>
<!-- Generator: Adobe Illustrator 27.4.1, SVG Export Plug-In . SVG Version: 6.00 Build 0)  -->
<svg version="1.1" id="Layer_1" xmlns="http://www.w3.org/2000/svg" xmlns:xlink="http://www.w3.org/1999/xlink" x="0px" y="0px"
	 viewBox="0 0 400 400" style="enable-background:new 0 0 400 400;" xml:space="preserve">
<style type="text/css">
	.st0{fill:#E29FA6;}
</style>
<path class="st0" d="M224.2,92.57V64.4l97.83,30.52c0,0,13.3,3.91,13.3,32.48s0,190.96,0,190.96s-6.26,17.22-21.52,17.22
	s-155.74,0-155.74,0s-16.43-5.48-16.43-18.78s0-27.78,0-27.78h22.7v22.7h129.91l-70.04-28.17v-166.3h-59.87v23.48h-22.7v-32.48
	c0,0,4.3-14.48,18.39-15.26C175.28,92.96,224.2,92.57,224.2,92.57z"/>
<polygon class="st0" points="195.24,202.92 195.24,226.4 107.2,226.4 133.8,249.48 117.17,266.11 64.54,214.27 117.37,161.44 
	133.41,178.27 109.93,202.53 "/>
</svg>
